<svg xmlns="http://www.w3.org/2000/svg" viewBox="0 0 100 100" preserveAspectRatio="xMidYMid" width="200" height="200" style="shape-rendering: auto; display: block; background: transparent;" xmlns:xlink="http://www.w3.org/1999/xlink"><g><g transform="rotate(0 50 50)">
  <rect fill="#26a69a" height="8" width="6" ry="2.32" rx="2.32" y="26" x="47">
    <animate repeatCount="indefinite" begin="-0.7s" dur="0.8s" keyTimes="0;1" values="1;0" attributeName="opacity"></animate>
  </rect>
</g><g transform="rotate(45 50 50)">
  <rect fill="#26a69a" height="8" width="6" ry="2.32" rx="2.32" y="26" x="47">
    <animate repeatCount="indefinite" begin="-0.6s" dur="0.8s" keyTimes="0;1" values="1;0" attributeName="opacity"></animate>
  </rect>
</g><g transform="rotate(90 50 50)">
  <rect fill="#26a69a" height="8" width="6" ry="2.32" rx="2.32" y="26" x="47">
    <animate repeatCount="indefinite" begin="-0.5s" dur="0.8s" keyTimes="0;1" values="1;0" attributeName="opacity"></animate>
  </rect>
</g><g transform="rotate(135 50 50)">
  <rect fill="#26a69a" height="8" width="6" ry="2.32" rx="2.32" y="26" x="47">
    <animate repeatCount="indefinite" begin="-0.4s" dur="0.8s" keyTimes="0;1" values="1;0" attributeName="opacity"></animate>
  </rect>
</g><g transform="rotate(180 50 50)">
  <rect fill="#26a69a" height="8" width="6" ry="2.32" rx="2.32" y="26" x="47">
    <animate repeatCount="indefinite" begin="-0.3s" dur="0.8s" keyTimes="0;1" values="1;0" attributeName="opacity"></animate>
  </rect>
</g><g transform="rotate(225 50 50)">
  <rect fill="#26a69a" height="8" width="6" ry="2.32" rx="2.32" y="26" x="47">
    <animate repeatCount="indefinite" begin="-0.2s" dur="0.8s" keyTimes="0;1" values="1;0" attributeName="opacity"></animate>
  </rect>
</g><g transform="rotate(270 50 50)">
  <rect fill="#26a69a" height="8" width="6" ry="2.32" rx="2.32" y="26" x="47">
    <animate repeatCount="indefinite" begin="-0.1s" dur="0.8s" keyTimes="0;1" values="1;0" attributeName="opacity"></animate>
  </rect>
</g><g transform="rotate(315 50 50)">
  <rect fill="#26a69a" height="8" width="6" ry="2.32" rx="2.32" y="26" x="47">
    <animate repeatCount="indefinite" begin="0s" dur="0.8s" keyTimes="0;1" values="1;0" attributeName="opacity"></animate>
  </rect>
</g><g></g></g><!-- [ldio] generated by https://loading.io --></svg>